<?xml version="1.0" encoding="UTF-8"?>
<!DOCTYPE svg PUBLIC "-//W3C//DTD SVG 1.1//EN" "http://www.w3.org/Graphics/SVG/1.1/DTD/svg11.dtd">
<!-- Creator: CorelDRAW -->
<svg xmlns="http://www.w3.org/2000/svg" xml:space="preserve" width="952px" height="952px" version="1.1" style="shape-rendering:geometricPrecision; text-rendering:geometricPrecision; image-rendering:optimizeQuality; fill-rule:evenodd; clip-rule:evenodd"
viewBox="0 0 950.32 950.32"
 xmlns:xlink="http://www.w3.org/1999/xlink"
 xmlns:xodm="http://www.corel.com/coreldraw/odm/2003">
 <defs>
  <style type="text/css">
   <![CDATA[
    .fil0 {fill:#26314D}
    .fil1 {fill:url(#id0)}
   ]]>
  </style>
  <linearGradient id="id0" gradientUnits="userSpaceOnUse" x1="88.2" y1="445.42" x2="864.84" y2="445.41">
   <stop offset="0" style="stop-opacity:1; stop-color:#EEB63D"/>
   <stop offset="0.2" style="stop-opacity:1; stop-color:#FFE889"/>
   <stop offset="0.431373" style="stop-opacity:1; stop-color:#EFB741"/>
   <stop offset="0.690196" style="stop-opacity:1; stop-color:#FFE17E"/>
   <stop offset="1" style="stop-opacity:1; stop-color:#E6B240"/>
  </linearGradient>
 </defs>
 <g id="Слой_x0020_1">
  <metadata id="CorelCorpID_0Corel-Layer"/>
  <circle class="fil0" cx="475.16" cy="475.16" r="475.16"/>
  <path class="fil1" d="M496.4 215.59l10.87 -47.02 -3.73 123.07 35.57 -121.94 -4.06 46.54 31.67 -81.21 -25.16 128.34 50.15 -128.25 -21.87 111.1 29.39 -49.01 -36.89 103.19 67.99 -99.63 -50.48 118.77 -20.64 11.3 -1.26 -18.17 -2.16 6.06 -19.94 12.5 -0.61 -4.76 -0.05 0.04 -4.39 -16.83 -20.41 16.79 -7.36 -28.08 0.3 -0.79 -8.07 9.62 -7.49 11.7 -12.61 -19.71 -12.61 19.71 -7.49 -11.7 -8.07 -9.62 0.3 0.79 -7.36 28.08 -20.41 -16.79 -4.39 16.83 -0.05 -0.04 -0.61 4.76 -19.94 -12.5 -2.17 -6.06 -1.25 18.17 -20.64 -11.3 -50.49 -118.77 68 99.63 -36.89 -103.19 29.39 49.01 -21.87 -111.1 50.15 128.25 -25.16 -128.34 31.66 81.21 -4.05 -46.54 35.57 121.94 -3.73 -123.07 10.87 47.02 8.63 -97.01 12.61 141.72 12.61 -141.72 8.63 97.01zm7.04 79.18l-0.08 2.75 0.59 -1.5 -0.51 -1.25zm-56.57 0l0.09 2.75 -0.59 -1.5 0.5 -1.25zm-52.69 427.31l-25.62 92.81 51.77 -109.85 -3.51 72.28 28.96 -115.6 -7.08 116.6 14.53 -55.16 7.7 108.58 14.23 -137.67 14.23 137.67 7.7 -108.58 14.53 55.16 -7.08 -116.6 28.96 115.6 -3.51 -72.28 51.76 109.85 -25.61 -92.81 36.86 92.74 -24.7 -119.58 34.34 53.2 -38.61 -97.7 60.77 97.79 -45.07 -120.06 106.72 137.16 -82.72 -157.09 -27.21 -10.14 2.18 28.85 -19.39 -11.73 -2.03 18.11 -2.07 -5.22 -20.34 -11.83 -0.43 4.51 -0.52 -0.41 -4.03 16.44 -18.07 -15.65 -7.4 25.57 -0.95 2.11 -12.78 -14.34 -4.66 -6.99 -10.87 17.7 -10.87 -17.7 -4.66 6.99 -12.79 14.34 -0.94 -2.11 -7.4 -25.57 -18.07 15.65 -4.04 -16.44 -0.51 0.41 -0.43 -4.51 -20.34 11.83 -2.07 5.22 -2.03 -18.11 -19.39 11.73 2.18 -28.85 -27.21 10.14 -82.72 157.09 106.72 -137.16 -45.07 120.06 60.77 -97.79 -38.61 97.7 34.34 -53.2 -24.7 119.58 36.86 -92.74zm228.52 -130.22l154.69 95.03 -138.14 -121.47 -29.01 -1.26 10.88 26.58 -22.07 -5.12 4.77 23.04 98.79 83.04 -79.91 -99.84zm29.67 -48.02l172.53 49.34 -164.22 -79.44 -28 7.7 18.24 21.63 -23.19 1.99 11.64 20.45 119.58 48.54 -106.58 -70.21zm14.41 -54.6l174.46 0.54 -176.12 -31.7 -24.31 15.88 23.93 15.01 -21.28 8.92 17.36 15.9 128.7 9.51 -122.74 -34.06zm-4.07 -56.32l158.97 -79.14 -170.48 50.16 -18.29 22.56 28.07 7.14 -17.09 14.6 21.38 9.84 125.46 -30.22 -128.02 5.06zm-21.04 -52.37l132.37 -120.22 -152.22 96.17 -10.48 27.08 28.53 -1.8 -11.89 19.29 23.36 2.83 110.2 -67.17 -119.87 43.82zm-36.03 -43.43l95.16 -151.52 -121.04 134.06 -1.74 28.98 26.35 -10.29 -5.53 22.55 23.1 -4.48 84.25 -97.77 -100.55 78.47zm-278.02 254.74l-154.69 95.03 138.14 -121.47 29.01 -1.26 -10.88 26.58 22.07 -5.12 -4.77 23.04 -98.79 83.04 79.91 -99.84zm-29.67 -48.02l-172.53 49.34 164.22 -79.44 28 7.7 -18.24 21.63 23.19 1.99 -11.64 20.45 -119.58 48.54 106.58 -70.21zm-14.41 -54.6l-174.46 0.54 176.12 -31.7 24.31 15.88 -23.93 15.01 21.28 8.92 -17.36 15.9 -128.7 9.51 122.74 -34.06zm4.07 -56.32l-158.97 -79.14 170.48 50.16 18.29 22.56 -28.07 7.14 17.09 14.6 -21.38 9.84 -125.47 -30.22 128.03 5.06zm21.04 -52.37l-132.37 -120.22 152.22 96.17 10.48 27.08 -28.53 -1.8 11.89 19.29 -23.36 2.83 -110.2 -67.17 119.87 43.82zm36.03 -43.43l-95.16 -151.52 121.04 134.06 1.73 28.98 -26.34 -10.29 5.53 22.55 -23.1 -4.48 -84.25 -97.77 100.55 78.47z"/>
 </g>
</svg>
