<?xml version="1.0" encoding="UTF-8"?>
<!DOCTYPE svg PUBLIC "-//W3C//DTD SVG 1.1//EN" "http://www.w3.org/Graphics/SVG/1.1/DTD/svg11.dtd">
<!-- Creator: CorelDRAW -->
<svg xmlns="http://www.w3.org/2000/svg" xml:space="preserve" width="1972px" height="998px" version="1.1" style="shape-rendering:geometricPrecision; text-rendering:geometricPrecision; image-rendering:optimizeQuality; fill-rule:evenodd; clip-rule:evenodd"
viewBox="0 0 292.56 148.05"
 xmlns:xlink="http://www.w3.org/1999/xlink"
 xmlns:xodm="http://www.corel.com/coreldraw/odm/2003">
 <defs>
  <style type="text/css">
   <![CDATA[
    .fil1 {fill:#E6E6E6}
    .fil0 {fill:url(#id0)}
   ]]>
  </style>
  <linearGradient id="id0" gradientUnits="userSpaceOnUse" x1="-4.31" y1="32.6" x2="301.43" y2="32.6">
   <stop offset="0" style="stop-opacity:1; stop-color:#EEB63D"/>
   <stop offset="0.2" style="stop-opacity:1; stop-color:#FFE889"/>
   <stop offset="0.431373" style="stop-opacity:1; stop-color:#EFB741"/>
   <stop offset="0.690196" style="stop-opacity:1; stop-color:#FFE17E"/>
   <stop offset="1" style="stop-opacity:1; stop-color:#E6B240"/>
  </linearGradient>
 </defs>
 <g id="Слой_x0020_1">
  <metadata id="CorelCorpID_0Corel-Layer"/>
  <g id="_1945789228624">
   <path class="fil0" d="M0 75.79l0 -75.79 15.8 0c11.76,0 20.16,0.52 25.02,1.68 4.87,1.08 9.09,2.88 12.84,5.51 4.73,3.27 8.48,7.62 10.89,12.83 2.45,5.21 3.7,11.24 3.7,17.92 0,6.67 -1.25,12.62 -3.7,17.91 -2.41,5.21 -6.16,9.43 -10.89,12.83 -3.75,2.54 -7.88,4.35 -12.54,5.52 -4.65,1.07 -11.97,1.59 -21.83,1.59l-3.49 0 -15.8 0 0 0zm99.39 -28.29l20.58 0 -7.75 -25.02c-0.22,-0.78 -0.52,-2.03 -0.95,-3.75 -0.43,-1.68 -0.94,-3.79 -1.59,-6.46 -0.43,1.81 -0.86,3.62 -1.38,5.3 -0.43,1.72 -0.86,3.32 -1.25,4.91l-7.66 25.02zm-28.94 28.29l26.18 -75.79 25.88 0 26.18 75.79 -20.58 0 -3.79 -13.57 -29.37 0 -3.92 13.57 -20.58 0zm105.5 -28.29l20.54 0 -7.71 -25.02c-0.21,-0.78 -0.56,-2.03 -0.99,-3.75 -0.38,-1.68 -0.94,-3.79 -1.55,-6.46 -0.43,1.81 -0.86,3.62 -1.42,5.3 -0.39,1.72 -0.82,3.32 -1.25,4.91l-7.62 25.02 0 0zm-28.94 28.29l26.19 -75.79 25.83 0 26.18 75.79 -20.54 0 -3.83 -13.57 -29.37 0 -3.92 13.57 -20.54 0 0 0zm85.44 0l0 -75.79 21.62 0c8.48,0 14.29,0.43 17.7,1.16 3.27,0.73 6.15,2.11 8.61,3.92 2.75,2.03 4.86,4.65 6.24,7.84 1.47,3.27 2.2,6.8 2.2,10.72 0,5.81 -1.47,10.59 -4.31,14.3 -2.88,3.62 -7.1,6.03 -12.62,7.32l20.67 30.53 -23.34 0 -17.39 -29.67 0 29.67 -19.38 0 0 0zm19.38 -39.96l3.83 0c4.44,0 7.75,-0.73 9.73,-2.33 2.03,-1.5 3.1,-3.83 3.1,-7.1 0,-3.84 -0.95,-6.46 -2.88,-8.06 -1.9,-1.72 -5.08,-2.45 -9.65,-2.45l-4.13 0 0 19.94 0 0zm-231.38 22.99l3.49 0c8.06,0 14,-1.68 17.7,-4.99 3.83,-3.36 5.64,-8.57 5.64,-15.89 0,-7.19 -1.81,-12.49 -5.64,-15.89 -3.7,-3.4 -9.64,-5.08 -17.7,-5.08l-3.49 0 0 41.85z"/>
   <path class="fil1" d="M60.11 113.12c1.25,0 2.16,0.26 2.72,0.87 0.56,0.6 0.86,1.5 0.86,2.71l0 0.56c0,0.82 -0.13,1.51 -0.39,2.02 -0.26,0.52 -0.64,0.91 -1.16,1.17 0.64,0.25 1.07,0.64 1.38,1.2 0.25,0.6 0.38,1.34 0.38,2.15l0 1.3c0,1.2 -0.3,2.11 -0.9,2.75 -0.6,0.65 -1.51,0.95 -2.71,0.95l-3.79 0 0 -15.68 3.61 0 0 0zm163.47 10.47l-3.02 -10.47 2.5 0 1.85 7.15 1.81 -7.15 2.28 0 -3.01 10.47 0 5.21 -2.41 0 0 -5.21 0 0zm13.13 -10.47l0 2.2 -4.56 11.24 4.56 0 0 2.24 -7.02 0 0 -2.2 4.52 -11.24 -4.3 0 0 -2.24 6.8 0zm-14.94 15.68l-2.41 0 -0.43 -2.84 -2.93 0 -0.43 2.84 -2.2 0 2.46 -15.68 3.49 0 2.45 15.68 0 0zm-5.47 -5l2.33 0 -1.17 -7.92 -1.16 7.92zm-149.55 -0.21l-3.02 -10.47 2.5 0 1.81 7.15 1.85 -7.15 2.28 0 -3.06 10.47 0 5.21 -2.36 0 0 -5.21 0 0zm9.25 -10.47l7.37 0 0 2.24 -2.5 0 0 13.44 -2.37 0 0 -13.44 -2.5 0 0 -2.24zm10.6 6.59l3.27 0 0 2.24 -3.27 0 0 4.61 4.13 0 0 2.24 -6.54 0 0 -15.68 6.54 0 0 2.24 -4.13 0 0 4.35zm12.23 3.28l0 2.06c0,1.29 -0.3,2.24 -0.86,2.93 -0.65,0.65 -1.51,0.99 -2.72,0.99 -1.16,0 -2.06,-0.34 -2.62,-1.03 -0.61,-0.65 -0.91,-1.64 -0.91,-2.89l0 -8.18c0,-1.29 0.3,-2.24 0.91,-2.93 0.56,-0.69 1.46,-1.03 2.62,-1.03 1.21,0 2.07,0.34 2.72,1.03 0.56,0.69 0.86,1.64 0.86,2.93l0 1.51 -2.24 0 0 -1.68c0,-0.56 -0.13,-0.95 -0.35,-1.21 -0.21,-0.21 -0.51,-0.34 -0.9,-0.34 -0.39,0 -0.69,0.13 -0.9,0.34 -0.22,0.26 -0.35,0.65 -0.35,1.21l0 8.52c0,0.56 0.13,0.95 0.35,1.17 0.21,0.26 0.51,0.34 0.9,0.34 0.39,0 0.69,-0.08 0.9,-0.34 0.22,-0.22 0.35,-0.61 0.35,-1.17l0 -2.23 2.24 0 0 0zm3.44 5.81l-2.41 0 0 -15.68 2.41 0 0 6.72 2.72 0 0 -6.72 2.41 0 0 15.68 -2.41 0 0 -6.72 -2.72 0 0 6.72zm8.44 -11.37l0 11.37 -2.15 0 0 -15.68 2.97 0 2.5 9.39 0 -9.39 2.11 0 0 15.68 -2.46 0 -2.97 -11.37zm8.87 7.75c0,0.56 0.09,0.99 0.35,1.21 0.21,0.26 0.51,0.34 0.9,0.34 0.35,0 0.65,-0.08 0.91,-0.34 0.21,-0.22 0.34,-0.65 0.34,-1.21l0 -8.48c0,-0.56 -0.13,-0.95 -0.34,-1.21 -0.26,-0.21 -0.56,-0.34 -0.91,-0.34 -0.39,0 -0.69,0.13 -0.9,0.34 -0.26,0.26 -0.35,0.65 -0.35,1.21l0 8.48zm-2.41 -8.31c0,-1.29 0.3,-2.24 0.95,-2.93 0.65,-0.69 1.51,-1.03 2.71,-1.03 1.16,0 2.07,0.34 2.67,1.03 0.65,0.69 0.95,1.64 0.95,2.93l0 8.18c0,1.25 -0.3,2.24 -0.95,2.89 -0.6,0.69 -1.51,1.03 -2.67,1.03 -1.2,0 -2.06,-0.34 -2.71,-1.03 -0.65,-0.65 -0.95,-1.64 -0.95,-2.89l0 -8.18zm8.36 -3.75l2.41 0 0 13.44 3.92 0 0 2.24 -6.33 0 0 -15.68zm9.3 12.06c0,0.56 0.13,0.99 0.34,1.21 0.22,0.26 0.52,0.34 0.91,0.34 0.38,0 0.69,-0.08 0.9,-0.34 0.22,-0.22 0.35,-0.65 0.35,-1.21l0 -8.48c0,-0.56 -0.13,-0.95 -0.35,-1.21 -0.21,-0.21 -0.52,-0.34 -0.9,-0.34 -0.39,0 -0.69,0.13 -0.91,0.34 -0.21,0.26 -0.34,0.65 -0.34,1.21l0 8.48zm-2.37 -8.31c0,-1.29 0.3,-2.24 0.9,-2.93 0.65,-0.69 1.55,-1.03 2.72,-1.03 1.16,0 2.06,0.34 2.71,1.03 0.6,0.69 0.9,1.64 0.9,2.93l0 8.18c0,1.25 -0.3,2.24 -0.9,2.89 -0.65,0.69 -1.55,1.03 -2.71,1.03 -1.17,0 -2.07,-0.34 -2.72,-1.03 -0.6,-0.65 -0.9,-1.64 -0.9,-2.89l0 -8.18zm12.06 3.23l3.31 0 0 4.95c0,1.29 -0.3,2.24 -0.86,2.93 -0.6,0.65 -1.51,0.99 -2.67,0.99 -1.2,0 -2.07,-0.34 -2.67,-1.03 -0.6,-0.65 -0.9,-1.64 -0.9,-2.89l0 -8.18c0,-1.29 0.3,-2.24 0.9,-2.93 0.6,-0.69 1.47,-1.03 2.67,-1.03 1.16,0 2.07,0.34 2.67,1.03 0.56,0.69 0.86,1.64 0.86,2.93l0 1.51 -2.24 0 0 -1.68c0,-0.56 -0.13,-0.95 -0.34,-1.21 -0.22,-0.21 -0.52,-0.34 -0.91,-0.34 -0.38,0 -0.68,0.13 -0.9,0.34 -0.22,0.26 -0.34,0.65 -0.34,1.21l0 8.52c0,0.56 0.12,0.95 0.34,1.17 0.22,0.26 0.52,0.34 0.9,0.34 0.39,0 0.69,-0.08 0.91,-0.34 0.21,-0.22 0.34,-0.61 0.34,-1.17l0 -2.88 -1.07 0 0 -2.24 0 0zm7.06 3.49l-3.02 -10.47 2.5 0 1.85 7.15 1.81 -7.15 2.28 0 -3.01 10.47 0 5.21 -2.41 0 0 -5.21 0 0zm8.53 2.84l0 2.37 -2.33 0 0 -2.37 2.33 0zm0 -8.57l0 2.41 -2.33 0 0 -2.41 2.33 0zm9.17 6.37l1.63 -11.11 3.32 0 0 15.68 -2.24 0 0 -11.24 -1.64 11.24 -2.28 0 -1.76 -11.11 0 11.11 -2.11 0 0 -15.68 3.31 0 1.77 11.11 0 0zm8.39 0.95c0,0.56 0.13,0.99 0.35,1.21 0.26,0.26 0.56,0.34 0.9,0.34 0.39,0 0.69,-0.08 0.91,-0.34 0.21,-0.22 0.34,-0.65 0.34,-1.21l0 -8.48c0,-0.56 -0.13,-0.95 -0.34,-1.21 -0.22,-0.21 -0.52,-0.34 -0.91,-0.34 -0.34,0 -0.64,0.13 -0.9,0.34 -0.22,0.26 -0.35,0.65 -0.35,1.21l0 8.48zm-2.36 -8.31c0,-1.29 0.3,-2.24 0.94,-2.93 0.61,-0.69 1.51,-1.03 2.67,-1.03 1.17,0 2.07,0.34 2.72,1.03 0.64,0.69 0.94,1.64 0.94,2.93l0 8.18c0,1.25 -0.3,2.24 -0.94,2.89 -0.65,0.69 -1.55,1.03 -2.72,1.03 -1.16,0 -2.06,-0.34 -2.67,-1.03 -0.64,-0.65 -0.94,-1.64 -0.94,-2.89l0 -8.18zm10.72 11.93l-2.41 0 0 -15.68 2.41 0 0 6.72 2.71 0 0 -6.72 2.46 0 0 15.68 -2.46 0 0 -6.72 -2.71 0 0 6.72zm6.33 -15.68l2.37 0 0 15.68 -2.37 0 0 -15.68zm8.52 15.68c0,-0.09 -0.04,-0.22 -0.08,-0.3 0,-0.09 -0.04,-0.17 -0.04,-0.3 -0.05,-0.18 -0.05,-0.35 -0.05,-0.52 -0.04,-0.22 -0.04,-0.47 -0.04,-0.82l0 -2.45c0,-0.74 -0.13,-1.25 -0.39,-1.55 -0.21,-0.31 -0.64,-0.43 -1.16,-0.43l-0.82 0 0 6.37 -2.41 0 0 -15.68 3.62 0c1.25,0 2.15,0.26 2.71,0.87 0.56,0.6 0.82,1.5 0.82,2.71l0 1.25c0,1.63 -0.52,2.67 -1.55,3.18 0.6,0.26 1.03,0.69 1.25,1.25 0.21,0.56 0.34,1.25 0.34,2.11l0 2.41c0,0.39 0,0.74 0.04,0.99 0,0.31 0.09,0.61 0.22,0.91l-2.46 0zm-2.58 -13.44l0 4.83 0.91 0c0.47,0 0.81,-0.13 1.07,-0.39 0.26,-0.22 0.39,-0.65 0.39,-1.29l0 -1.55c0,-0.56 -0.09,-0.99 -0.3,-1.25 -0.22,-0.22 -0.52,-0.35 -0.95,-0.35l-1.12 0zm11.8 4.74l3.1 0 0 2.24 -3.1 0 0 6.46 -2.41 0 0 -15.68 6.33 0 0 2.24 -3.92 0 0 4.74zm-151.19 1.64l0 4.82 1.38 0c0.38,0 0.69,-0.13 0.9,-0.34 0.22,-0.22 0.35,-0.61 0.35,-1.21l0 -1.38c0,-0.73 -0.13,-1.2 -0.39,-1.51 -0.22,-0.25 -0.65,-0.38 -1.16,-0.38l-1.08 0 0 0zm0 -6.38l0 4.14 0.95 0c0.43,0 0.77,-0.13 1.03,-0.35 0.26,-0.26 0.39,-0.69 0.39,-1.33l0 -0.86c0,-0.56 -0.09,-0.99 -0.3,-1.25 -0.18,-0.22 -0.52,-0.35 -0.91,-0.35l-1.16 0 0 0z"/>
   <path class="fil1" d="M128.33 144.3l-3.71 0 0 -1.42 3.71 0 0 1.42zm8.52 3.53l-6.93 0 0 -1.59 3.83 -3.79 0.09 -0.04c0.99,-0.99 1.5,-1.81 1.5,-2.5 0,-0.6 -0.17,-1.08 -0.56,-1.42 -0.38,-0.43 -0.86,-0.61 -1.42,-0.61 -0.6,0 -1.07,0.18 -1.42,0.61 -0.34,0.39 -0.51,0.95 -0.51,1.63l0 0.13 -1.51 0 0 -0.04c0,-1.16 0.34,-2.11 0.99,-2.8 0.64,-0.73 1.51,-1.08 2.58,-1.08 0.95,0 1.77,0.35 2.41,1.04 0.65,0.69 0.99,1.51 0.99,2.5 0,0.51 -0.12,1.03 -0.38,1.55 -0.22,0.47 -0.65,0.99 -1.21,1.55l-3.4 3.27 4.95 0 0 1.59 0 0zm1.64 -3.96l0 -3.36c0,-0.69 0.04,-1.2 0.13,-1.59 0.13,-0.39 0.3,-0.73 0.51,-1.04 0.39,-0.51 0.82,-0.9 1.34,-1.16 0.52,-0.26 1.12,-0.39 1.72,-0.39 0.69,0 1.29,0.18 1.81,0.44 0.56,0.25 0.99,0.68 1.38,1.2 0.17,0.3 0.34,0.65 0.43,1.03 0.08,0.39 0.13,0.91 0.13,1.47l0 3.44c0,0.61 -0.05,1.12 -0.13,1.51 -0.09,0.39 -0.26,0.73 -0.48,1.03 -0.34,0.52 -0.77,0.91 -1.33,1.17 -0.52,0.3 -1.12,0.43 -1.81,0.43 -0.6,0 -1.16,-0.13 -1.72,-0.39 -0.52,-0.26 -0.99,-0.65 -1.38,-1.12 -0.21,-0.3 -0.39,-0.69 -0.47,-1.08 -0.09,-0.43 -0.13,-0.94 -0.13,-1.59l0 0zm1.63 0.26l0 0.17c0,0.35 0,0.65 0.05,0.82 0.04,0.17 0.08,0.3 0.21,0.47 0.17,0.26 0.43,0.52 0.73,0.65 0.35,0.17 0.69,0.26 1.08,0.26 0.73,0 1.25,-0.22 1.59,-0.61 0.35,-0.38 0.52,-0.99 0.52,-1.8l0 -3.79c0,-0.48 0,-0.82 -0.04,-0.99 -0.05,-0.18 -0.13,-0.35 -0.22,-0.48 -0.17,-0.3 -0.43,-0.51 -0.77,-0.69 -0.3,-0.17 -0.69,-0.26 -1.08,-0.26 -0.34,0 -0.73,0.09 -1.03,0.22 -0.3,0.17 -0.56,0.39 -0.78,0.69 -0.08,0.13 -0.17,0.3 -0.21,0.52 -0.05,0.21 -0.05,0.56 -0.05,0.99l0 3.83 0 0zm14.34 3.7l-6.93 0 0 -1.59 3.83 -3.79 0.05 -0.04c1.03,-0.99 1.5,-1.81 1.5,-2.5 0,-0.6 -0.17,-1.08 -0.56,-1.42 -0.34,-0.43 -0.81,-0.61 -1.42,-0.61 -0.6,0 -1.07,0.18 -1.42,0.61 -0.3,0.39 -0.47,0.95 -0.47,1.63l0 0.13 -1.51 0 0 -0.04c0,-1.16 0.35,-2.11 0.99,-2.8 0.65,-0.73 1.51,-1.08 2.59,-1.08 0.94,0 1.72,0.35 2.41,1.04 0.64,0.69 0.94,1.51 0.94,2.5 0,0.51 -0.08,1.03 -0.34,1.55 -0.26,0.47 -0.65,0.99 -1.21,1.55l-3.4 3.27 4.95 0 0 1.59 0 0zm1.6 -3.96l0 -3.36c0,-0.69 0.04,-1.2 0.17,-1.59 0.09,-0.39 0.26,-0.73 0.52,-1.04 0.34,-0.51 0.81,-0.9 1.33,-1.16 0.52,-0.26 1.08,-0.39 1.72,-0.39 0.65,0 1.25,0.18 1.81,0.44 0.52,0.25 0.99,0.68 1.34,1.2 0.21,0.3 0.34,0.65 0.47,1.03 0.09,0.39 0.13,0.91 0.13,1.47l0 3.44c0,0.61 -0.04,1.12 -0.13,1.51 -0.13,0.39 -0.26,0.73 -0.47,1.03 -0.35,0.52 -0.78,0.91 -1.34,1.17 -0.56,0.3 -1.16,0.43 -1.81,0.43 -0.64,0 -1.2,-0.13 -1.72,-0.39 -0.56,-0.26 -0.99,-0.65 -1.38,-1.12 -0.21,-0.3 -0.38,-0.69 -0.47,-1.08 -0.13,-0.43 -0.17,-0.94 -0.17,-1.59l0 0zm1.63 0.26l0 0.17c0,0.35 0,0.65 0.09,0.82 0.04,0.17 0.09,0.3 0.17,0.47 0.17,0.26 0.48,0.52 0.78,0.65 0.34,0.17 0.69,0.26 1.03,0.26 0.73,0 1.25,-0.22 1.59,-0.61 0.39,-0.38 0.56,-0.99 0.56,-1.8l0 -3.79c0,-0.48 -0.04,-0.82 -0.08,-0.99 -0.05,-0.18 -0.09,-0.35 -0.17,-0.48 -0.22,-0.3 -0.48,-0.51 -0.78,-0.69 -0.34,-0.17 -0.69,-0.26 -1.08,-0.26 -0.38,0 -0.73,0.09 -1.07,0.22 -0.3,0.17 -0.52,0.39 -0.73,0.69 -0.13,0.13 -0.18,0.3 -0.22,0.52 -0.04,0.21 -0.09,0.56 -0.09,0.99l0 3.83 0 0zm10.94 0.17l-3.75 0 0 -1.42 3.75 0 0 1.42z"/>
  </g>
 </g>
</svg>
