<svg version="1.2" xmlns="http://www.w3.org/2000/svg" viewBox="0 0 634 534" width="634" height="534"><style>.a{fill:none;stroke:#000;stroke-linecap:round;stroke-linejoin:round;stroke-width:50}</style><path fill-rule="evenodd" class="a" d="m187.3 305.1q-0.7 0.4-1.4 0.7-0.7 0.3-1.5 0.4-0.8 0.1-1.6 0-0.8-0.1-1.5-0.3l-124-39.2c-27.5-8.1-27.5-27 6.2-40.4l495.9-191.3q1.4-0.7 3-1.3 1.5-0.5 3.1-0.9 1.6-0.4 3.2-0.6 1.6-0.3 3.2-0.4c17.3 0 30.3 15.2 23.3 43.3l-84.4 398c-5.9 28.2-23 35.1-46.6 21.9l-201.4-148.7c-0.8-0.6-1.4-1.3-1.8-2.2-0.5-0.9-0.7-1.8-0.7-2.8 0-0.9 0.2-1.9 0.7-2.7 0.4-0.9 1-1.6 1.8-2.2l169.5-128.5"/></svg>