<svg version="1.2" xmlns="http://www.w3.org/2000/svg" viewBox="0 0 1598 585" width="1598" height="585"><style>.a{fill:#c99d3f}.b{fill:#1e1e1e}</style><path fill-rule="evenodd" class="a" d="m643 350.5v-247.3h51.6c38.3 0 65.7 1.6 81.6 5.4 15.9 3.6 29.7 9.4 41.9 18 15.5 10.7 27.7 24.9 35.6 41.9 8 17 12 36.6 12 58.5 0 21.8-4 41.2-12 58.4-7.9 17-20.1 30.8-35.6 41.9-12.2 8.3-25.7 14.2-41 18-15.1 3.5-39 5.2-71.2 5.2zm-347.9-249.7l8.2-34.8-2.9 91.1 26.3-90.2-2.9 34.4 23.4-60-18.6 94.8 37.1-94.8-16.2 82.1 21.7-36.2-27.3 76.3 50.2-73.8-37.3 87.9-15.2 8.3-1-13.4-1.5 4.6-14.8 9.2-0.5-3.5-3.2-12.4-15 12.4-5.5-20.8 0.2-0.7-5.9 7.2-5.6 8.7-9.3-14.6-9.2 14.6-5.7-8.7-6-7.2 0.3 0.7-5.4 20.8-15.2-12.4-3.1 12.4-0.6 3.5-14.8-9.2-1.5-4.6-0.9 13.4-15.1-8.2v-0.1l-0.3-0.3-37.3-87.6 50.5 73.8-27.4-76.3 21.7 36.2-16.1-82.1 37.1 94.8-18.7-94.8 23.5 60-3-34.4 26.2 90.2-2.7-91.1 8 34.8 6.5-71.7 9.2 104.7 9.3-104.7zm-93 76.8l0.2 0.1 1.2 21.5-19.4-7.7 4 16.7-17.1-3.4-62.2-72.2 74.3 58.1-70.2-112 89.1 98.7zm98.3-18.3v2.1l0.4-1.3zm-41.8 0l-0.3 0.9 0.3 1.2zm-66.2 384.1l18.3-88.2-25.3 39.3 28.5-72.3-45 72.3 33.4-88.8-78.8 101.4 60.9-115.9 0.1-0.2 20.1-7.4-1.6 21.3 14.3-8.7 1.6 13.5 1.5-4 15-8.6 0.4 3.2 0.2-0.3 3.1 12.2 13.2-11.5 5.7 18.8 0.6 1.6 9.5-10.6 3.4-5.1 8.1 12.9 7.9-12.9 3.5 5.1 9.4 10.6 0.7-1.6 5.5-18.8 13.3 11.5 3-12.2 0.5 0.3 0.2-3.2 15.1 8.6 1.5 4 1.4-13.5 14.4 8.7-1.7-21.3 20.2 7.4 0.1 0.2 0.1 0.1 0.1 0.1 60.9 115.7-78.9-101.4 33.3 88.8-44.9-72.3 28.5 72.3-25.3-39.3 18.2 88.2-27.2-68.4 18.8 68.5-38.2-81.2 2.6 53.5-21.3-85.4 5.1 86.1-10.7-40.7-5.7 80.2-10.4-101.7-10.6 101.7-5.6-80.2-10.7 40.7 5.1-86.1-21.3 85.4 2.6-53.5-38.4 81.2 19-68.5zm182.2-152.3v-0.1l-3.4-16.8 16.3 3.7-8.2-19.7 21.5 1.1 102.1 89.7-114.3-70.2 58.9 73.8-72.7-61.2-0.1-0.2zm114.6 4l-88.4-35.8-8.5-15.3 17.1-1.4-13.5-16 20.7-5.6 121.4 58.7-127.5-36.5zm22.6-67.1l-95-7-12.9-11.7 15.7-6.6-17.7-11.2 18-11.7 0.1 0.1 0.2-0.1 129.7 23.5-128.8-0.5zm-91.9-48.2l-15.7-7.2 12.6-10.7-20.8-5.5 13.6-16.5 126-37-117.6 58.3 94.6-3.7-92.4 22.3h-0.3zm71.3-89.6l-81.4 49.6-17.4-2.1 8.9-14.2-21.1 1.2 7.7-19.8 112.5-71.2-97.7 88.9zm-115.2 0.3l74.2-58.1-62.2 72.3-17.2 3.2 4.2-16.6-19.5 7.6 1.3-21.5 89.5-99-70.4 112.1zm-205.5 188.1l-114.2 70.3 102-89.7 21.4-1.1-8 19.6 16.3-3.7-3.6 17v0.1l-72.9 61.4zm-21.9-35.5l-127.5 36.5 121.1-58.7h0.1l0.1-0.1 20.6 5.6-13.4 16.1 17.1 1.5-8.6 15.1-88.4 35.9zm-6.4-22.2l-95.1 7 90.8-25.1-128.9 0.4 130.2-23.4 17.9 11.7-17.6 11.1 15.7 6.6-12.8 11.6zm-1.3-59.7l-117.4-58.4 126 37.1 13.4 16.5-20.7 5.3 12.5 10.8-15.6 7.3-92.8-22.4zm15.7-38.6l-97.9-88.9 112.5 71.2 7.8 19.9-21.1-1.3 8.9 14.2-17.4 2.1-81.4-49.5zm716.5 127.8l85.4-247.3h84.5l82.7 239.4-2.7 7.9h-61.8l-12.3-44.2h-95.8l-12.9 44.2zm94.5-92.4h67.2l-25.3-81.5c-0.8-2.6-1.8-6.7-3.1-12.3-1.5-5.4-3.1-12.3-5.2-21.1-1.4 6-2.8 11.8-4.5 17.3-1.5 5.6-2.9 10.8-4.1 16.1zm161 92.2l-2.8-7.9 82.6-239.4h84.4l85.4 247.3h-67l-12.5-44.2h-95.8l-12.8 44.2zm88.9-92.2h67l-25.1-81.7c-0.7-2.5-1.8-6.7-3.3-12.2-1.2-5.5-3-12.4-5-21.1-1.4 5.9-2.8 11.8-4.7 17.3-1.2 5.5-2.6 10.8-4.1 16zm184.4 92.3v-247.3h70.6c27.7 0 46.6 1.4 57.7 3.8 10.7 2.4 20.1 6.8 28.2 12.7 8.9 6.7 15.8 15.2 20.3 25.7 4.8 10.7 7.2 22.1 7.2 34.9 0 19-4.8 34.6-14 46.7-9.5 11.8-23.2 19.7-41.2 23.9l67.4 99.6h-76.1l-56.8-96.7v96.7zm63.3-130.4h12.4c14.5 0 25.3-2.3 31.8-7.6 6.7-4.9 10.1-12.6 10.1-23.1 0-12.6-3.1-21.1-9.3-26.3-6.3-5.7-16.6-8-31.6-8h-13.4zm-755.2 74.9h11.5c26.3 0 45.6-5.4 57.7-16.2 12.5-11 18.4-28 18.4-51.8 0-23.5-5.9-40.8-18.4-52-12.1-11-31.4-16.4-57.7-16.4h-11.5z"/><path class="b" d="m645.3 441.9v63.1h8.2v-55.3h33.5v55.3h8.1v-63.1zm85.2 63.7c13.1 0 22.7-10.2 22.7-24.5 0-14.2-9.6-24.3-22.7-24.3-13.2 0-22.8 10.1-22.8 24.3 0 14.3 9.6 24.5 22.8 24.5zm0-7.6c-8.5 0-14.8-6.7-14.8-16.9 0-10.2 6.3-16.8 14.8-16.8 8.4 0 14.6 6.6 14.6 16.8 0 10.2-6.2 16.9-14.6 16.9zm262.5-16.6c0-14.7-9-24.6-21.6-24.6-12.6 0-22 10.2-22 24.3 0 14.3 9.4 24.5 23.6 24.5 7.2 0 13.2-2.7 17.2-7.8l-4.4-5.6c-3.2 3.9-7.5 5.8-12.6 5.8-8.7 0-14.8-5.6-15.8-14h35.4c0.1-0.8 0.2-1.9 0.2-2.6zm-21.6-17.3c7.7 0 13.2 5.7 14 13.7h-28c0.8-8.1 6.4-13.7 14-13.7zm33.9 40.9h7.9v-20h25v20h7.9v-47.8h-7.9v20.3h-25v-20.3h-7.9zm75 0.6c13.1 0 22.7-10.2 22.7-24.5 0-14.2-9.6-24.3-22.7-24.3-13.2 0-22.8 10.1-22.8 24.3 0 14.3 9.6 24.5 22.8 24.5zm0-7.6c-8.5 0-14.8-6.7-14.8-16.9 0-10.2 6.3-16.8 14.8-16.8 8.4 0 14.7 6.6 14.7 16.8 0 10.2-6.3 16.9-14.7 16.9zm56.3-40.8v47.8h8v-40.2h24.6v40.2h8v-47.8zm79-0.4c-6.4 0-12 2.7-15.6 8v-7.6h-7.6v65.3h8v-24.7c3.6 5.1 9 7.8 15.2 7.8 12.8 0 22.2-9.8 22.2-24.5 0-14.6-9.4-24.3-22.2-24.3zm-0.6 41.2c-8.4 0-14.7-6.7-14.7-16.9 0-10.1 6.3-16.8 14.7-16.8 8.4 0 14.7 6.7 14.7 16.8 0 10.2-6.3 16.9-14.7 16.9zm34.2 7h7.3l26.7-34.8v34.8h8v-47.8h-7.2l-26.8 34.8v-34.8h-8zm80.5-48.2c-6.4 0-12.1 2.7-15.6 8v-7.6h-7.6v65.3h7.9v-24.7c3.7 5.1 9.1 7.8 15.3 7.8 12.8 0 22.1-9.8 22.1-24.5 0-14.6-9.3-24.3-22.1-24.3zm-0.7 41.2c-8.3 0-14.6-6.7-14.6-16.9 0-10.1 6.3-16.8 14.6-16.8 8.5 0 14.8 6.7 14.8 16.8 0 10.2-6.3 16.9-14.8 16.9zm53 7.6c13.2 0 22.7-10.2 22.7-24.5 0-14.2-9.5-24.3-22.7-24.3-13.1 0-22.8 10.1-22.8 24.3 0 14.3 9.7 24.5 22.8 24.5zm0-7.6c-8.4 0-14.7-6.7-14.7-16.9 0-10.2 6.3-16.8 14.7-16.8 8.4 0 14.7 6.6 14.7 16.8 0 10.2-6.3 16.9-14.7 16.9zm71.7-0.6v-40.2h-33.9l-0.7 16.2c-0.6 12-1.7 23.7-7.9 24h-2.3v18.7h7.5v-11.1h36.5v11.1h7.5v-18.7zm-27.3-23.4l0.4-9.2h18.9v32.6h-24.5c4-3.8 4.8-13.5 5.2-23.4zm63 31.6c13.1 0 22.7-10.2 22.7-24.5 0-14.2-9.6-24.3-22.7-24.3-13.1 0-22.8 10.1-22.8 24.3 0 14.3 9.7 24.5 22.8 24.5zm0-7.6c-8.4 0-14.8-6.7-14.8-16.9 0-10.2 6.4-16.8 14.8-16.8 8.4 0 14.7 6.6 14.7 16.8 0 10.2-6.3 16.9-14.7 16.9zm54.6-47c8.1 0 12.9-4.3 13.1-12.5h-5.5c-0.1 4.5-3.1 7.4-7.6 7.4-4.5 0-7.5-2.9-7.5-7.4h-5.4c0.1 8.2 4.9 12.5 12.9 12.5zm-20.4 54h7.2l26.8-34.8v34.8h7.9v-47.8h-7.2l-26.8 34.8v-34.8h-7.9zm57.5-19.9h6.3l1.6-43.2h-9.4zm3.2 20.4c3.1 0 5.3-2.6 5.3-5.7 0-3.3-2.2-5.8-5.3-5.8-3.1 0-5.4 2.5-5.4 5.8 0 3.1 2.3 5.7 5.4 5.7zm-786.6-67.4v26.3c-3.6-5.1-9-7.7-15.2-7.7-12.8 0-22.2 9.8-22.2 24.4 0 14.6 9.4 24.4 22.2 24.4 6.4 0 12-2.7 15.6-8.1v7.6h7.6v-66.9zm-14.6 59.9c-8.5 0-14.8-6.7-14.8-16.9 0-10.2 6.3-16.8 14.8-16.8 8.3 0 14.6 6.6 14.6 16.8 0 10.2-6.3 16.9-14.6 16.9zm53.4-41.3c-7 0-13.5 2.2-18 6.2l3.3 6.5c3.4-3.2 8.6-5.2 13.8-5.2 7.9 0 11.8 4.3 11.8 11.6v1.7h-12.6c-13 0-17.6 6.3-17.6 14 0 8.3 6.3 14 16.2 14 6.9 0 11.7-2.5 14.4-6.8v6.3h7.5v-28.9c0-13-6.8-19.4-18.8-19.4zm-1.8 42.2c-6 0-9.6-3-9.6-7.8 0-4.1 2.2-7.4 10-7.4h12.3v6.7c-2 5.5-6.7 8.5-12.7 8.5zm51.2-42.2c-7 0-13.5 2.2-18.1 6.2l3.3 6.5c3.4-3.2 8.7-5.2 13.9-5.2 7.8 0 11.7 4.3 11.7 11.6v1.7h-12.5c-13.1 0-17.6 6.3-17.6 14 0 8.3 6.3 14 16.2 14 6.8 0 11.7-2.5 14.3-6.8v6.3h7.5v-28.9c0-13-6.7-19.4-18.7-19.4zm-1.8 42.2c-6 0-9.7-3-9.7-7.8 0-4.1 2.3-7.4 10.1-7.4h12.2v6.7c-2 5.5-6.7 8.5-12.6 8.5zm42.8-33.7v-8h-7.6v47.8h7.9v-23.8c0-10.5 5.3-16.2 13.8-16.2 0.6 0 1.2 0 1.8 0.1v-8.4c-7.6 0-13.1 2.9-15.9 8.5z"/></svg>