<?xml version="1.0" encoding="UTF-8"?>
<!DOCTYPE svg PUBLIC "-//W3C//DTD SVG 1.1//EN" "http://www.w3.org/Graphics/SVG/1.1/DTD/svg11.dtd">
<!-- Creator: CorelDRAW -->
<svg xmlns="http://www.w3.org/2000/svg" xml:space="preserve" width="1080px" height="1231px" version="1.1" style="shape-rendering:geometricPrecision; text-rendering:geometricPrecision; image-rendering:optimizeQuality; fill-rule:evenodd; clip-rule:evenodd"
viewBox="0 0 1080 1230.85"
 xmlns:xlink="http://www.w3.org/1999/xlink"
 xmlns:xodm="http://www.corel.com/coreldraw/odm/2003">
 <defs>
  <style type="text/css">
   <![CDATA[
    .fil0 {fill:#D7B56D}
    .fil1 {fill:#1A1A1A}
   ]]>
  </style>
 </defs>
 <g id="Слой_x0020_1">
  <metadata id="CorelCorpID_0Corel-Layer"/>
  <g id="_2264769868128">
   <path class="fil0" d="M0 945.92l0 -279.74 58.32 0c43.43,0 74.44,1.91 92.35,6.18 17.98,3.99 33.57,10.62 47.42,20.34 17.47,12.08 31.32,28.12 40.2,47.35 9.03,19.24 13.65,41.49 13.65,66.17 0,24.62 -4.62,46.59 -13.65,66.11 -8.88,19.23 -22.73,34.82 -40.2,47.35 -13.85,9.41 -29.09,16.07 -46.31,20.38 -17.15,3.95 -44.16,5.86 -80.58,5.86l-12.88 0 -58.32 0zm557.41 -866.31l9.06 -38.61 -3.19 101.06 29.23 -100.12 -3.33 38.15 26.07 -66.59 -20.66 105.33 41.18 -105.33 -17.99 91.21 24.13 -40.21 -30.34 84.71 55.79 -81.86 -41.49 97.55 -16.84 9.24 -1.07 -14.93 -1.77 5.07 -16.35 10.21 -0.53 -3.82 -3.64 -13.82 -16.66 13.82 -6.05 -23.05 0.14 -0.77 -6.52 7.92 -6.15 9.68 -10.34 -16.21 -10.31 16.21 -6.22 -9.68 -6.7 -7.92 0.31 0.77 -6 23.05 -16.88 -13.82 -3.47 13.82 -0.62 3.82 -16.39 -10.21 -1.73 -5.07 -0.98 14.93 -16.97 -9.24 -41.49 -97.55 55.93 81.86 -30.34 -84.71 24.13 40.21 -17.92 -91.21 41.14 105.33 -20.65 -105.33 26.07 66.59 -3.37 -38.15 29.09 100.12 -3.02 -101.06 8.92 38.61 7.16 -79.61 10.31 116.3 10.34 -116.3 6.98 79.61 0 0 0 0zm5.87 64.98l-0.18 2.26 0.49 -1.32 -0.31 -0.93 0 -0.01zm-46.42 0l0 2.26 -0.45 -1.32 0.45 -0.93 0 -0.01zm-43.22 350.68l-21.11 76.1 42.6 -90.23 -2.88 59.43 23.67 -94.88 -5.72 95.65 11.9 -45.24 6.22 89.12 11.77 -112.97 11.59 112.97 6.35 -89.12 11.91 45.24 -5.69 -95.65 23.68 94.88 -2.89 -59.43 42.43 90.23 -20.97 -76.1 30.2 75.96 -20.2 -98.04 28.12 43.71 -31.59 -80.27 49.85 80.27 -37.01 -98.53 87.56 112.52 -67.84 -128.87 -22.43 -8.26 1.77 23.67 -15.9 -9.68 -1.59 14.93 -1.7 -4.31 -16.74 -9.69 -0.31 3.68 -0.45 -0.34 -3.33 13.5 -14.79 -12.84 -6.04 20.97 -0.8 1.73 -10.49 -11.77 -3.82 -5.73 -8.88 14.48 -8.93 -14.48 -3.78 5.73 -10.52 11.77 -0.76 -1.73 -6.22 -20.97 -14.75 12.84 -3.37 -13.5 -0.31 0.34 -0.45 -3.68 -16.7 9.69 -1.6 4.31 -1.74 -14.93 -15.9 9.68 1.74 -23.67 -22.22 8.26 -67.87 128.87 87.56 -112.52 -37.01 98.53 49.89 -80.27 -31.63 80.27 28.12 -43.71 -20.34 98.04 30.34 -75.96 0 0 0 0zm187.54 -106.93l126.96 78.01 -113.49 -99.6 -23.82 -1.15 9.06 21.8 -18.12 -4.13 3.82 18.89 81.03 68.18 -65.44 -82 0 0 0 0zm24.3 -39.4l141.54 40.55 -134.74 -65.2 -23.01 6.21 14.96 17.81 -18.95 1.6 9.51 16.84 98.07 39.85 -87.38 -57.66 0 0 0 0zm11.73 -44.79l143.18 0.45 -144.43 -26.03 -20.03 12.98 19.69 12.43 -17.47 7.32 14.31 12.99 105.5 7.81 -100.75 -27.95 0 0 0 0zm-3.29 -46.24l130.43 -64.85 -139.81 41.14 -15.13 18.43 23.05 5.91 -13.99 11.9 17.67 8.13 102.76 -24.79 -104.98 4.13 0 0 0 0zm-17.19 -42.91l108.53 -98.7 -124.91 79.02 -8.54 22.04 23.36 -1.39 -9.76 15.83 19.27 2.23 90.4 -54.93 -98.35 35.9 0 0 0 0zm-29.58 -35.58l78.05 -124.43 -99.33 109.91 -1.42 23.89 21.63 -8.44 -4.62 18.44 19.06 -3.68 69.12 -80.23 -82.45 64.54 -0.04 0 0 0 0 0zm-228.15 208.92l-126.96 78.01 113.31 -99.6 23.82 -1.15 -8.93 21.8 18.13 -4.13 -3.96 18.89 -81.06 68.18 65.65 -82 0 0zm-24.31 -39.4l-141.57 40.55 134.73 -65.2 22.88 6.21 -14.93 17.81 19.06 1.6 -9.51 16.84 -98.21 39.85 87.55 -57.66 0 0 0 0zm-11.9 -44.79l-143.18 0.45 144.6 -26.03 19.86 12.98 -19.55 12.43 17.46 7.32 -14.3 12.99 -105.68 7.81 100.79 -27.95 0 0zm3.29 -46.24l-130.43 -64.85 140.02 41.14 14.89 18.43 -23.02 5.91 13.96 11.9 -17.43 8.13 -103 -24.79 105.01 4.13 0 0 0 0zm17.36 -42.91l-108.7 -98.7 124.88 79.02 8.75 22.04 -23.5 -1.39 9.86 15.83 -19.24 2.23 -90.43 -54.93 98.38 35.9 0 0 0 0zm29.55 -35.58l-78.01 -124.43 99.29 109.91 1.46 23.89 -21.63 -8.44 4.44 18.44 -18.92 -3.68 -69.12 -80.23 82.49 64.54 0 0 0 0zm-66.1 662.08l75.99 0 -28.61 -92.35c-0.83,-2.88 -1.94,-7.5 -3.5,-13.85 -1.6,-6.18 -3.47,-13.99 -5.87,-23.85 -1.6,6.7 -3.19,13.36 -5.1,19.58 -1.6,6.35 -3.2,12.25 -4.62,18.12l-28.29 92.35zm-106.83 104.42l96.65 -279.74 95.54 0 96.65 279.74 -75.99 0 -13.99 -50.06 -108.42 0 -14.48 50.06 -75.96 0 0 0zm389.45 -104.42l75.82 0 -28.46 -92.35c-0.77,-2.88 -2.05,-7.5 -3.65,-13.85 -1.39,-6.18 -3.47,-13.99 -5.73,-23.85 -1.56,6.7 -3.16,13.36 -5.24,19.58 -1.42,6.35 -3.02,12.25 -4.62,18.12l-28.12 92.35 0 0zm-106.82 104.42l96.69 -279.74 95.33 0 96.65 279.74 -75.82 0 -14.13 -50.06 -108.42 0 -14.48 50.06 -75.82 0 0 0zm315.4 0l0 -279.74 79.81 0c31.32,0 52.74,1.56 65.34,4.27 12.08,2.71 22.71,7.77 31.8,14.47 10.14,7.5 17.92,17.15 23.02,28.92 5.41,12.08 8.12,25.1 8.12,39.58 0,21.46 -5.41,39.09 -15.9,52.8 -10.66,13.37 -26.21,22.26 -46.59,27.01l76.31 112.69 -86.17 0 -64.19 -109.49 0 109.49 -71.55 0 0 0 0 0zm71.55 -147.51l14.13 0c16.39,0 28.61,-2.67 35.93,-8.57 7.47,-5.56 11.43,-14.17 11.43,-26.21 0,-14.2 -3.51,-23.85 -10.63,-29.75 -7.01,-6.36 -18.74,-9.07 -35.62,-9.07l-15.24 0 0 73.6 0 0zm-854.13 84.89l12.88 0c29.75,0 51.66,-6.22 65.34,-18.44 14.12,-12.39 20.79,-31.63 20.79,-58.64 0,-26.55 -6.67,-46.1 -20.79,-58.67 -13.68,-12.53 -35.59,-18.74 -65.34,-18.74l-12.88 0 0 154.49z"/>
   <path class="fil1" d="M132.49 1065.8c5.92,0 10.18,1.24 12.84,4.08 2.62,2.86 4.05,7.12 4.05,12.86l0 2.61c0,3.86 -0.62,7.15 -1.82,9.56 -1.24,2.44 -3.02,4.31 -5.47,5.5 3.02,1.21 5.02,3.02 6.49,5.7 1.19,2.84 1.82,6.31 1.82,10.18l0 6.13c0,5.64 -1.42,9.94 -4.26,12.98 -2.85,3.06 -7.16,4.48 -12.8,4.48l-17.91 0 0 -74.08 17.06 0 0 0 0 0 0 0zm772.44 49.46l-14.26 -49.46 11.81 0 8.72 33.77 8.58 -33.77 10.75 0 -14.22 49.46 0 24.62 -11.38 0 0 -24.62 0 0zm62.04 -49.46l0 10.4 -21.55 53.11 21.55 0 0 10.57 -33.15 0 0 -10.4 21.32 -53.1 -20.3 0 0 -10.58 32.13 0 0 0 0 0zm-70.62 74.08l-11.37 0 -2.04 -13.42 -13.83 0 -2.05 13.42 -10.39 0 11.65 -74.08 16.49 0 11.54 74.08 0 0 0 0zm-25.82 -23.59l10.99 0 -5.52 -37.47 -5.47 37.47 0 0zm-706.66 -1.03l-14.28 -49.46 11.78 0 8.58 33.77 8.75 -33.77 10.77 0 -14.45 49.46 0 24.62 -11.15 0 0 -24.62 0 0 0 0zm43.68 -49.46l34.83 0 0 10.58 -11.81 0 0 63.5 -11.2 0 0 -63.5 -11.82 0 0 -10.58 0 0 0 0zm50.08 31.16l15.46 0 0 10.57 -15.46 0 0 21.78 19.56 0 0 10.57 -30.94 0 0 -74.08 30.94 0 0 10.58 -19.56 0 0 20.58 0 0 0 0zm57.82 15.46l0 9.73c0,6.13 -1.42,10.62 -4.1,13.86 -3.06,3.07 -7.1,4.67 -12.84,4.67 -5.46,0 -9.72,-1.6 -12.35,-4.85 -2.89,-3.06 -4.31,-7.77 -4.31,-13.68l0 -38.62c0,-6.13 1.42,-10.62 4.31,-13.86 2.63,-3.24 6.89,-4.84 12.35,-4.84 5.74,0 9.78,1.6 12.84,4.84 2.68,3.24 4.1,7.73 4.1,13.86l0 7.12 -10.59 0 0 -7.91c0,-2.68 -0.61,-4.5 -1.67,-5.74 -0.99,-0.98 -2.41,-1.6 -4.23,-1.6 -1.87,0 -3.29,0.62 -4.27,1.6 -1.01,1.24 -1.64,3.06 -1.64,5.74l0 40.25c0,2.63 0.63,4.5 1.64,5.51 0.98,1.25 2.4,1.6 4.27,1.6 1.82,0 3.24,-0.35 4.23,-1.6 1.06,-1.01 1.67,-2.88 1.67,-5.51l0 -10.57 10.59 0 0 0 0 0 0 0 0 0zm16.26 27.46l-11.42 0 0 -74.08 11.42 0 0 31.73 12.85 0 0 -31.73 11.36 0 0 74.08 -11.36 0 0 -31.73 -12.85 0 0 31.73zm39.86 -53.73l0 53.73 -10.18 0 0 -74.08 14.04 0 11.83 44.36 0 -44.36 9.96 0 0 74.08 -11.61 0 -14.04 -53.73 0 0 0 0zm41.91 36.63c0,2.66 0.44,4.71 1.65,5.72 1.02,1.25 2.44,1.6 4.26,1.6 1.64,0 3.06,-0.35 4.31,-1.6 0.98,-1.01 1.6,-3.06 1.6,-5.72l0 -40.04c0,-2.68 -0.62,-4.5 -1.6,-5.74 -1.25,-0.98 -2.67,-1.6 -4.31,-1.6 -1.82,0 -3.24,0.62 -4.26,1.6 -1.21,1.24 -1.65,3.06 -1.65,5.74l0 40.04zm-11.38 -39.25c0,-6.13 1.43,-10.62 4.49,-13.86 3.07,-3.24 7.15,-4.84 12.8,-4.84 5.5,0 9.78,1.6 12.62,4.84 3.06,3.24 4.49,7.73 4.49,13.86l0 38.62c0,5.91 -1.43,10.62 -4.49,13.68 -2.84,3.25 -7.12,4.86 -12.62,4.86 -5.65,0 -9.73,-1.61 -12.8,-4.86 -3.06,-3.06 -4.49,-7.77 -4.49,-13.68l0 -38.62zm39.51 -17.73l11.38 0 0 63.51 18.52 0 0 10.57 -29.9 0 0 -74.08 0 0zm43.95 56.98c0,2.66 0.62,4.71 1.6,5.72 1.02,1.25 2.44,1.6 4.31,1.6 1.78,0 3.24,-0.35 4.22,-1.6 1.07,-1.01 1.69,-3.06 1.69,-5.72l0 -40.04c0,-2.68 -0.62,-4.5 -1.69,-5.74 -0.98,-0.98 -2.44,-1.6 -4.22,-1.6 -1.87,0 -3.29,0.62 -4.31,1.6 -0.98,1.24 -1.6,3.06 -1.6,5.74l0 40.04zm-11.2 -39.25c0,-6.13 1.42,-10.62 4.27,-13.86 3.06,-3.24 7.28,-4.84 12.84,-4.84 5.47,0 9.73,1.6 12.8,4.84 2.84,3.24 4.26,7.73 4.26,13.86l0 38.62c0,5.91 -1.42,10.62 -4.26,13.68 -3.07,3.25 -7.33,4.86 -12.8,4.86 -5.56,0 -9.78,-1.61 -12.84,-4.86 -2.85,-3.06 -4.27,-7.77 -4.27,-13.68l0 -38.62zm56.97 15.25l15.64 0 0 23.37c0,6.13 -1.42,10.62 -4.04,13.86 -2.84,3.07 -7.16,4.67 -12.62,4.67 -5.69,0 -9.78,-1.6 -12.62,-4.85 -2.85,-3.06 -4.27,-7.77 -4.27,-13.68l0 -38.62c0,-6.13 1.42,-10.62 4.27,-13.86 2.84,-3.24 6.93,-4.84 12.62,-4.84 5.46,0 9.78,1.6 12.62,4.84 2.62,3.24 4.04,7.73 4.04,13.86l0 7.12 -10.57 0 0 -7.91c0,-2.68 -0.63,-4.5 -1.6,-5.74 -1.06,-0.98 -2.45,-1.6 -4.31,-1.6 -1.78,0 -3.2,0.62 -4.27,1.6 -1.02,1.24 -1.6,3.06 -1.6,5.74l0 40.2c0,2.68 0.58,4.55 1.6,5.56 1.07,1.25 2.49,1.6 4.27,1.6 1.87,0 3.25,-0.35 4.31,-1.6 0.97,-1.01 1.6,-2.88 1.6,-5.56l0 -13.59 -5.07 0 0 -10.57 0 0 0 0 0 0 0 0zm33.37 16.48l-14.26 -49.46 11.82 0 8.71 33.77 8.58 -33.77 10.75 0 -14.22 49.46 0 24.62 -11.38 0 0 -24.62 0 0zm40.31 13.42l0 11.2 -11.02 0 0 -11.2 11.02 0zm0 -40.48l0 11.37 -11.02 0 0 -11.37 11.02 0zm43.33 30.08l7.69 -52.48 15.68 0 0 74.08 -10.57 0 0 -53.1 -7.73 53.1 -10.8 0 -8.31 -52.48 0 52.48 -9.96 0 0 -74.08 15.64 0 8.36 52.48 0 0 0 0 0 0 0 0zm39.64 4.5c0,2.66 0.62,4.71 1.64,5.72 1.24,1.25 2.67,1.6 4.27,1.6 1.83,0 3.25,-0.35 4.31,-1.6 0.98,-1.01 1.6,-3.06 1.6,-5.72l0 -40.04c0,-2.68 -0.62,-4.5 -1.6,-5.74 -1.06,-0.98 -2.48,-1.6 -4.31,-1.6 -1.6,0 -3.03,0.62 -4.27,1.6 -1.02,1.24 -1.64,3.06 -1.64,5.74l0 40.04zm-11.16 -39.25c0,-6.13 1.42,-10.62 4.44,-13.86 2.9,-3.24 7.16,-4.84 12.62,-4.84 5.52,0 9.78,1.6 12.86,4.84 3.02,3.24 4.44,7.73 4.44,13.86l0 38.62c0,5.91 -1.42,10.62 -4.44,13.68 -3.08,3.25 -7.34,4.86 -12.86,4.86 -5.46,0 -9.72,-1.61 -12.62,-4.86 -3.02,-3.06 -4.44,-7.77 -4.44,-13.68l0 -38.62zm50.67 56.35l-11.38 0 0 -74.08 11.38 0 0 31.73 12.8 0 0 -31.73 11.63 0 0 74.08 -11.63 0 0 -31.73 -12.8 0 0 31.73zm29.9 -74.08l11.2 0 0 74.08 -11.2 0 0 -74.08zm40.27 74.08c0,-0.4 -0.18,-1.03 -0.36,-1.42 0,-0.4 -0.22,-0.8 -0.22,-1.42 -0.23,-0.85 -0.23,-1.64 -0.23,-2.45 -0.18,-1.02 -0.18,-2.21 -0.18,-3.86l0 -11.6c0,-3.47 -0.61,-5.92 -1.85,-7.28 -0.99,-1.48 -3.02,-2.05 -5.47,-2.05l-3.86 0 0 30.08 -11.43 0 0 -74.08 17.11 0c5.91,0 10.18,1.24 12.84,4.09 2.62,2.85 3.86,7.11 3.86,12.85l0 5.86c0,7.73 -2.48,12.62 -7.33,15.07 2.85,1.2 4.85,3.23 5.91,5.91 0.99,2.61 1.6,5.86 1.6,9.95l0 11.37c0,1.87 0,3.51 0.18,4.68 0,1.46 0.45,2.88 1.07,4.3l-11.64 0 0 0 0 0 0 0zm-12.17 -63.5l0 22.84 4.3 0c2.17,0 3.82,-0.62 5.03,-1.87 1.24,-1.02 1.85,-3.07 1.85,-6.09l0 -7.33c0,-2.61 -0.43,-4.66 -1.42,-5.9 -1.06,-1.03 -2.44,-1.65 -4.48,-1.65l-5.28 0 0 0zm55.72 22.4l14.67 0 0 10.57 -14.67 0 0 30.53 -11.38 0 0 -74.08 29.91 0 0 10.58 -18.53 0 0 22.4 0 0zm-714.41 7.73l0 22.8 6.54 0c1.78,0 3.23,-0.63 4.22,-1.6 1.06,-1.07 1.69,-2.9 1.69,-5.74l0 -6.53c0,-3.43 -0.63,-5.64 -1.87,-7.11 -1.02,-1.2 -3.07,-1.82 -5.46,-1.82l-5.12 0 0 0 0 0zm0 -30.13l0 19.55 4.49 0c2.05,0 3.65,-0.62 4.89,-1.65 1.2,-1.24 1.82,-3.24 1.82,-6.26l0 -4.09c0,-2.61 -0.44,-4.66 -1.43,-5.9 -0.84,-1.03 -2.44,-1.65 -4.3,-1.65l-5.47 0 0 0 0 0z"/>
   <path class="fil1" d="M454.85 1213.12l-17.55 0 0 -6.72 17.55 0 0 6.72zm40.27 16.71l-32.76 0 0 -7.52 18.09 -17.9 0.45 -0.22c4.66,-4.67 7.06,-8.54 7.06,-11.78 0,-2.84 -0.8,-5.11 -2.67,-6.71 -1.77,-2.04 -4.03,-2.89 -6.66,-2.89 -2.84,0 -5.07,0.85 -6.72,2.89 -1.64,1.82 -2.43,4.48 -2.43,7.68l0 0.63 -7.12 0 0 -0.23c0,-5.46 1.6,-9.94 4.67,-13.2 3.02,-3.45 7.16,-5.1 12.18,-5.1 4.48,0 8.39,1.65 11.42,4.89 3.07,3.29 4.67,7.15 4.67,11.81 0,2.45 -0.59,4.89 -1.83,7.34 -1.03,2.22 -3.06,4.67 -5.69,7.33l-16.09 15.46 23.43 0 0 7.52 0 0 0 0 0 0zm7.73 -18.72l0 -15.91c0,-3.24 0.18,-5.63 0.61,-7.5 0.63,-1.83 1.43,-3.43 2.41,-4.89 1.87,-2.44 3.87,-4.26 6.35,-5.52 2.44,-1.19 5.29,-1.81 8.09,-1.81 3.29,0 6.13,0.84 8.58,2.08 2.62,1.15 4.67,3.2 6.52,5.65 0.81,1.42 1.6,3.07 2.01,4.89 0.4,1.82 0.62,4.31 0.62,6.94l0 16.25c0,2.89 -0.22,5.29 -0.62,7.12 -0.41,1.87 -1.2,3.46 -2.26,4.89 -1.6,2.44 -3.65,4.3 -6.27,5.5 -2.45,1.42 -5.29,2.05 -8.58,2.05 -2.8,0 -5.47,-0.63 -8.09,-1.83 -2.48,-1.24 -4.71,-3.11 -6.53,-5.29 -1.02,-1.42 -1.87,-3.29 -2.23,-5.1 -0.43,-2.05 -0.61,-4.45 -0.61,-7.52l0 0 0 0 0 0 0 0zm7.68 1.21l0 0.8c0,1.68 0,3.06 0.27,3.91 0.18,0.79 0.36,1.38 0.98,2.17 0.8,1.24 2.04,2.5 3.46,3.11 1.65,0.81 3.25,1.21 5.07,1.21 3.47,0 5.91,-1.03 7.51,-2.9 1.69,-1.78 2.49,-4.66 2.49,-8.48l0 -17.91c0,-2.27 0,-3.87 -0.18,-4.66 -0.27,-0.85 -0.62,-1.65 -1.06,-2.28 -0.8,-1.42 -2.05,-2.43 -3.65,-3.28 -1.42,-0.8 -3.24,-1.2 -5.11,-1.2 -1.6,0 -3.42,0.4 -4.84,1.03 -1.42,0.79 -2.67,1.86 -3.68,3.23 -0.42,0.63 -0.81,1.42 -0.99,2.5 -0.27,0.97 -0.27,2.61 -0.27,4.66l0 18.09 0 0 0 0zm67.78 17.51l-32.76 0 0 -7.52 18.09 -17.9 0.27 -0.22c4.84,-4.67 7.06,-8.54 7.06,-11.78 0,-2.84 -0.8,-5.11 -2.62,-6.71 -1.6,-2.04 -3.83,-2.89 -6.71,-2.89 -2.84,0 -5.07,0.85 -6.7,2.89 -1.44,1.82 -2.23,4.48 -2.23,7.68l0 0.63 -7.16 0 0 -0.23c0,-5.46 1.64,-9.94 4.71,-13.2 3.08,-3.45 7.11,-5.1 12.23,-5.1 4.44,0 8.13,1.65 11.37,4.89 3.03,3.29 4.45,7.15 4.45,11.81 0,2.45 -0.36,4.89 -1.6,7.34 -1.25,2.22 -3.07,4.67 -5.73,7.33l-16.04 15.46 23.37 0 0 7.52 0 0 0 0 0 0zm7.55 -18.72l0 -15.91c0,-3.24 0.22,-5.63 0.79,-7.5 0.45,-1.83 1.25,-3.43 2.5,-4.89 1.6,-2.44 3.82,-4.26 6.26,-5.52 2.45,-1.19 5.11,-1.81 8.13,-1.81 3.07,0 5.91,0.84 8.54,2.08 2.48,1.15 4.71,3.2 6.35,5.65 0.98,1.42 1.6,3.07 2.22,4.89 0.4,1.82 0.63,4.31 0.63,6.94l0 16.25c0,2.89 -0.23,5.29 -0.63,7.12 -0.62,1.87 -1.24,3.46 -2.22,4.89 -1.64,2.44 -3.69,4.3 -6.35,5.5 -2.63,1.42 -5.47,2.05 -8.54,2.05 -3.02,0 -5.69,-0.63 -8.13,-1.83 -2.62,-1.24 -4.66,-3.11 -6.53,-5.29 -0.98,-1.42 -1.78,-3.29 -2.23,-5.1 -0.57,-2.05 -0.79,-4.45 -0.79,-7.52l0 0 0 0 0 0 0 0zm7.73 1.21l0 0.8c0,1.68 0,3.06 0.4,3.91 0.18,0.79 0.45,1.38 0.81,2.17 0.79,1.24 2.26,2.5 3.68,3.11 1.6,0.81 3.29,1.21 4.89,1.21 3.42,0 5.9,-1.03 7.5,-2.9 1.83,-1.78 2.63,-4.66 2.63,-8.48l0 -17.91c0,-2.27 -0.18,-3.87 -0.36,-4.66 -0.26,-0.85 -0.44,-1.65 -0.79,-2.28 -1.07,-1.42 -2.27,-2.43 -3.69,-3.28 -1.6,-0.8 -3.29,-1.2 -5.12,-1.2 -1.77,0 -3.46,0.4 -5.06,1.03 -1.42,0.79 -2.44,1.86 -3.43,3.23 -0.61,0.63 -0.88,1.42 -1.06,2.5 -0.18,0.97 -0.4,2.61 -0.4,4.66l0 18.09 0 0 0 0 0 0 0 0zm51.68 0.8l-17.73 0 0 -6.72 17.73 0 0 6.72z"/>
  </g>
 </g>
</svg>
