<svg version="1.2" xmlns="http://www.w3.org/2000/svg" viewBox="0 0 2679 1095" width="2679" height="1095"><style>.a{fill:#1e1e1e}.b{fill:#c99d3f}</style><path class="a" d="m13.4 878v169.2h21.8v-148.1h89.8v148.1h21.7v-169.2zm228.3 170.7c35.2 0 60.8-27.3 60.8-65.5 0-38.2-25.6-65.3-60.8-65.3-35.2 0-61.1 27.1-61.1 65.3 0 38.2 25.9 65.5 61.1 65.5zm0-20.3c-22.6 0-39.6-17.9-39.6-45.2 0-27.3 17-45 39.6-45 22.5 0 39.4 17.7 39.4 45 0 27.3-16.9 45.2-39.4 45.2zm703.6-44.5c0-39.4-24.1-66-58-66-33.8 0-58.8 27.3-58.8 65.3 0 38.2 25.2 65.5 63 65.5 19.5 0 35.6-7.3 46.3-20.8l-11.8-15c-8.6 10.4-20.1 15.5-33.8 15.5-23.2 0-39.8-15-42.5-37.5h95.1c0.2-2.2 0.5-5.1 0.5-7zm-58-46.4c20.6 0 35.4 15.2 37.6 36.7h-75.2c2.2-21.7 17.3-36.7 37.6-36.7zm90.9 109.7h21.2v-53.6h66.8v53.6h21.3v-128.1h-21.3v54.4h-66.8v-54.4h-21.2zm200.9 1.5c35.1 0 60.8-27.3 60.8-65.5 0-38.2-25.7-65.3-60.8-65.3-35.2 0-61.1 27.1-61.1 65.3 0 38.2 25.9 65.5 61.1 65.5zm0-20.3c-22.6 0-39.6-17.9-39.6-45.2 0-27.3 17-45 39.6-45 22.5 0 39.3 17.7 39.3 45 0 27.3-16.8 45.2-39.3 45.2zm151-109.3v128.1h21.3v-107.8h66.1v107.8h21.2v-128.1zm211.9-1.2c-17.2 0-32.3 7.3-41.8 21.5v-20.3h-20.3v175h21.2v-66.2c9.7 13.8 24.3 20.8 40.9 20.8 34.3 0 59.3-26.1 59.3-65.5 0-39.2-25-65.3-59.3-65.3zm-1.7 110.5c-22.4 0-39.4-17.9-39.4-45.2 0-27.1 17-45 39.4-45 22.5 0 39.5 17.9 39.5 45 0 27.3-17 45.2-39.5 45.2zm91.7 18.8h19.5l71.7-93.3v93.3h21.2v-128.1h-19.2l-71.9 93.3v-93.3h-21.3zm215.7-129.3c-17.3 0-32.3 7.3-41.8 21.5v-20.3h-20.3v175h21.2v-66.2c9.7 13.8 24.3 20.8 40.9 20.8 34.3 0 59.3-26.1 59.3-65.5 0-39.2-25-65.3-59.3-65.3zm-1.8 110.5c-22.3 0-39.3-17.9-39.3-45.2 0-27.1 17-45 39.3-45 22.6 0 39.6 17.9 39.6 45 0 27.3-17 45.2-39.6 45.2zm142 20.3c35.2 0 60.9-27.3 60.9-65.5 0-38.2-25.7-65.3-60.9-65.3-35.1 0-61 27.1-61 65.3 0 38.2 25.9 65.5 61 65.5zm0-20.3c-22.5 0-39.6-17.9-39.6-45.2 0-27.3 17.1-45 39.6-45 22.6 0 39.4 17.7 39.4 45 0 27.3-16.8 45.2-39.4 45.2zm192-1.5v-107.8h-90.8l-1.8 43.3c-1.6 32.4-4.5 63.6-21.3 64.5h-6.2v50.1h20.1v-29.8h98v29.8h20v-50.1zm-73.2-62.8l1.1-24.7h50.8v87.5h-65.6c10.6-10.1 12.8-36.2 13.7-62.8zm168.9 84.6c35.2 0 60.8-27.3 60.8-65.5 0-38.2-25.6-65.3-60.8-65.3-35.1 0-61 27.1-61 65.3 0 38.2 25.9 65.5 61 65.5zm0-20.3c-22.5 0-39.6-17.9-39.6-45.2 0-27.3 17.1-45 39.6-45 22.6 0 39.4 17.7 39.4 45 0 27.3-16.8 45.2-39.4 45.2zm146.4-126c21.5 0 34.6-11.6 35-33.3h-14.8c-0.2 12.1-8.2 19.8-20.4 19.8-11.9 0-19.9-7.7-20.1-19.8h-14.4c0.3 21.7 13.3 33.3 34.7 33.3zm-54.8 144.8h19.5l71.6-93.3v93.3h21.3v-128.1h-19.3l-71.9 93.3v-93.3h-21.2zm154.2-53.4h16.8l4.2-115.8h-25zm8.6 54.9c8.2 0 14.2-7 14.2-15.5 0-8.7-6-15.4-14.2-15.4-8.4 0-14.6 6.7-14.6 15.4 0 8.5 6.2 15.5 14.6 15.5zm-2107.9-180.8v70.6c-9.7-13.8-24.3-20.6-40.9-20.6-34.3 0-59.3 26.1-59.3 65.3 0 39.2 25 65.5 59.3 65.5 17.3 0 32.3-7.3 41.8-21.8v20.3h20.3v-179.3zm-39.1 160.5c-22.5 0-39.6-17.9-39.6-45.2 0-27.3 17.1-45 39.6-45 22.3 0 39.4 17.7 39.4 45 0 27.3-17.1 45.2-39.4 45.2zm143.3-110.5c-18.8 0-36.2 5.8-48.4 16.4l8.8 17.4c9.1-8.4 23.3-13.7 37.2-13.7 21 0 31.4 11.3 31.4 30.9v4.6h-33.6c-35 0-47.1 16.9-47.1 37.5 0 22.2 16.8 37.7 43.3 37.7 18.4 0 31.5-6.8 38.5-18.4v16.9h20.2v-77.3c0-35.1-18.2-52-50.3-52zm-4.8 112.9c-16.2 0-25.9-8-25.9-20.8 0-10.9 6-19.8 27-19.8h32.7v17.9c-5.3 14.7-17.9 22.7-33.8 22.7zm137.1-112.9c-18.8 0-36.3 5.8-48.4 16.4l8.8 17.4c9.1-8.4 23.2-13.7 37.2-13.7 21 0 31.4 11.3 31.4 30.9v4.6h-33.6c-35 0-47.2 16.9-47.2 37.5 0 22.2 16.9 37.7 43.4 37.7 18.4 0 31.4-6.8 38.5-18.4v16.9h20.1v-77.3c0-35.1-18.1-52-50.2-52zm-4.9 112.9c-16.1 0-25.8-8-25.8-20.8 0-10.9 5.9-19.8 26.9-19.8h32.8v17.9c-5.3 14.7-17.9 22.7-33.9 22.7zm114.8-90.1v-21.6h-20.3v128.1h21.2v-63.8c0-28 14.2-43.3 37-43.3 1.5 0 3 0 4.8 0.3v-22.5c-20.6 0-35.2 7.8-42.7 22.8z"/><path fill-rule="evenodd" class="b" d="m0.4 694.5v-693.7h144.6c107.5 0 184.4 4.7 229.1 15.3 44.3 10 83.1 26.2 117.5 50.3 43.4 30 77.5 70 99.7 117.5 22.5 47.8 33.7 102.8 33.7 164 0 61.3-11.2 115.7-33.7 164.1-22.2 47.5-56.3 86.2-99.7 117.5-34.4 23.1-72.2 39.7-115 50.3-42.5 10-109.4 14.7-199.7 14.7zm645.3 0.6l239.7-693.7h236.8l232.2 671.5-7.8 22.2h-173.1l-34.7-124h-268.8l-35.9 124zm265-259h188.4l-70.9-228.8c-2.2-7.2-5-18.7-8.7-34.3-4.1-15.4-8.8-34.7-14.8-59.4-3.7 16.9-7.7 33.1-12.5 48.7-4 15.6-8.1 30.3-11.5 45zm451.5 258.8l-7.7-22.2 231.8-671.6h236.6l239.6 693.8h-188.1l-35-124.1h-268.7l-35.9 124.1zm249.3-258.8h188.1l-70.6-229c-1.8-7.2-5-18.8-9-34.4-3.5-15.3-8.5-34.7-14.1-59.1-4 16.6-7.8 33.2-13.1 48.5-3.5 15.6-7.5 30.3-11.6 45zm517.2 258.7v-693.4h198.1c77.5 0 130.6 3.7 161.9 10.6 30 6.6 56.2 19.1 79 35.6 25 18.8 44.4 42.5 56.9 71.9 13.4 30 20.3 62.2 20.3 98.1 0 53.1-13.4 96.9-39.4 131-26.5 33.1-65 55.3-115.6 66.8l189.1 279.4h-213.5l-159.3-271.3v271.3zm177.4-365.6h35.1c40.6 0 70.9-6.6 89-21.3 18.7-13.7 28.4-35.3 28.4-65 0-35.3-8.7-59-26.2-73.7-17.5-16-46.6-22.5-88.4-22.5h-37.9zm-2118 210.3h32.2c73.7 0 127.8-15.3 161.9-45.6 35-30.6 51.5-78.5 51.5-145.3 0-66-16.5-114.4-51.5-145.7-34.1-30.9-88.2-46.2-161.9-46.2h-32.2z"/></svg>