<svg version="1.2" xmlns="http://www.w3.org/2000/svg" viewBox="0 0 1598 585" width="1598" height="585"><style>.a{fill:#c99d3f}</style><path fill-rule="evenodd" class="a" d="m741 404.4v-222h46.3c34.4 0 59 1.5 73.3 4.9 14.2 3.2 26.6 8.4 37.6 16.1 13.9 9.6 24.8 22.4 31.9 37.6 7.2 15.3 10.8 32.9 10.8 52.5 0 19.6-3.6 37-10.8 52.5-7.1 15.2-18 27.6-31.9 37.6-11 7.4-23.1 12.7-36.8 16.1-13.6 3.2-35 4.7-63.9 4.7zm-424.2-324.8l9.1-38.6-3.2 101.1 29.2-100.2-3.3 38.2 26-66.6-20.6 105.3 41.2-105.3-18 91.2 24.1-40.2-30.3 84.7 55.7-81.9-41.4 97.6-16.9 9.2-1.1-14.9-1.7 5.1-16.4 10.2-0.5-3.8-3.6-13.8-16.7 13.8-6.1-23.1 0.2-0.8-6.5 8-6.2 9.6-10.3-16.2-10.3 16.2-6.3-9.6-6.7-8 0.4 0.8-6 23.1-16.9-13.8-3.5 13.8-0.6 3.8-16.4-10.2-1.7-5.1-1 14.9-16.8-9.1v-0.1l-0.3-0.3-41.4-97.3 56 81.9-30.4-84.7 24.1 40.2-17.9-91.2 41.2 105.3-20.7-105.3 26.1 66.6-3.4-38.2 29.1 100.2-3-101.1 8.9 38.6 7.2-79.6 10.3 116.3 10.3-116.3zm-103.1 85.4l1.4 23.8-21.6-8.5 4.4 18.5-18.9-3.7-69.1-80.2 82.5 64.5-78-124.4 99 109.6 0.1 0.3zm109-20.4l-0.1 2.3 0.5-1.4-0.4-0.9zm-46.4 0l-0.4 1 0.4 1.3zm-73.5 426.6l20.3-98-28.1 43.7 31.6-80.3-49.9 80.3 37-98.6-87.5 112.6 67.8-128.9 22.3-8.3-1.8 23.7 15.9-9.7 1.8 15 1.6-4.4 16.7-9.6 0.4 3.6 0.3-0.3 3.4 13.5 14.7-12.8 6.3 20.9 0.7 1.8 10.5-11.8 3.8-5.7 9 14.4 8.8-14.4 3.9 5.7 10.4 11.8 0.8-1.8 6.1-20.9 14.8 12.8 3.3-13.5 0.5 0.3 0.3-3.6 16.7 9.6 1.7 4.4 1.6-15 15.9 9.7-1.8-23.7 22.4 8.3 0.1 0.1 0.1 0.1 67.7 128.7-87.6-112.6 37 98.6-49.8-80.3 31.6 80.3-28.1-43.7 20.2 98-30.2-76 20.9 76.1-42.4-90.2 2.9 59.4-23.7-94.8 5.7 95.6-11.9-45.2-6.4 89.1-11.5-113-11.8 113-6.2-89.1-11.9 45.2 5.7-95.6-23.7 94.8 2.9-59.4-42.6 90.2 21.1-76.1zm202.3-169.2l-3.8-18.7 18.1 4.1-9.1-21.8 23.9 1.2 113.4 99.6-126.9-78 65.4 82-80.9-68.1-0.1-0.3zm127.3 4.6l-98.1-39.8-9.5-16.9 19-1.6-15-17.8 23-6.2 134.8 65.2-141.6-40.5zm25.1-74.5l-105.5-7.8-14.3-13 17.5-7.4-19.7-12.4 20-13 144.4 26.1-143.1-0.5zm0.9-78.3l-102.8 24.8-17.6-8.1 14-11.9-23.1-6 15.1-18.4 139.9-41.1-130.5 64.8zm-23.8-74.7l-90.4 55-19.3-2.3 9.8-15.8-23.4 1.4 8.6-22 124.9-79.1-108.5 98.7zm-127.9 0.4l82.4-64.6-69.1 80.3-19.1 3.6 4.7-18.4-21.7 8.4 1.4-23.9 99.4-109.9-78.1 124.5zm-228.2 208.9l-126.9 78 113.3-99.6 23.8-1.2-8.9 21.8 18.1-4.1-4 18.9-81 68.2zm-24.3-39.4l-141.6 40.5 134.7-65.2 22.9 6.2-14.9 17.9 19 1.6-9.5 16.8-98.2 39.8zm-11.9-44.7l-143.2 0.4 144.6-26 19.9 13-19.5 12.4 17.4 7.3-14.3 13-105.7 7.8zm3.3-46.2l-130.4-64.9 140 41.2 14.9 18.4-23 5.9 13.9 11.9-17.4 8.1-103-24.8zm17.4-42.9l-108.7-98.7 124.9 79 8.7 22.1-23.5-1.4 9.9 15.8-19.3 2.3-90.4-55zm784.5 189.4l76.7-222h75.8l74.3 214.9-2.5 7.1h-55.4l-11.1-39.7h-86l-11.5 39.7zm84.8-82.9h60.3l-22.7-73.2c-0.7-2.3-1.6-6-2.8-11-1.3-4.9-2.8-11.1-4.7-19-1.2 5.4-2.5 10.6-4 15.6-1.3 5-2.6 9.7-3.7 14.4zm144.5 82.8l-2.5-7.1 74.2-214.9h75.7l76.7 222h-60.2l-11.2-39.7h-86l-11.5 39.7zm79.8-82.8h60.2l-22.6-73.3c-0.6-2.3-1.6-6-2.9-11-1.1-4.9-2.7-11.1-4.5-18.9-1.3 5.3-2.5 10.6-4.2 15.5-1.1 5-2.4 9.7-3.7 14.4zm165.5 82.8v-221.9h63.4c24.8 0 41.8 1.2 51.8 3.4 9.6 2.1 18 6.1 25.3 11.4 8 6 14.2 13.6 18.2 23 4.3 9.6 6.5 19.9 6.5 31.4 0 17-4.3 31-12.6 41.9-8.5 10.6-20.8 17.7-37 21.4l60.5 89.4h-68.3l-51-86.8v86.8zm56.8-117h11.2c13 0 22.7-2.1 28.5-6.8 6-4.4 9.1-11.3 9.1-20.8 0-11.3-2.8-18.9-8.4-23.6-5.6-5.1-14.9-7.2-28.3-7.2h-12.1zm-677.8 67.3h10.3c23.6 0 40.9-4.9 51.8-14.6 11.2-9.8 16.5-25.1 16.5-46.5 0-21.1-5.3-36.6-16.5-46.6-10.9-9.9-28.2-14.8-51.8-14.8h-10.3z"/></svg>