<?xml version="1.0" encoding="UTF-8"?>
<!DOCTYPE svg PUBLIC "-//W3C//DTD SVG 1.1//EN" "http://www.w3.org/Graphics/SVG/1.1/DTD/svg11.dtd">
<!-- Creator: CorelDRAW -->
<svg xmlns="http://www.w3.org/2000/svg" xml:space="preserve" width="1097px" height="1069px" version="1.1" style="shape-rendering:geometricPrecision; text-rendering:geometricPrecision; image-rendering:optimizeQuality; fill-rule:evenodd; clip-rule:evenodd"
viewBox="0 0 153.84 149.85"
 xmlns:xlink="http://www.w3.org/1999/xlink"
 xmlns:xodm="http://www.corel.com/coreldraw/odm/2003">
 <defs>
  <style type="text/css">
   <![CDATA[
    .fil0 {fill:url(#id0)}
   ]]>
  </style>
  <linearGradient id="id0" gradientUnits="userSpaceOnUse" x1="-5.33" y1="65.1" x2="157.42" y2="65.1">
   <stop offset="0" style="stop-opacity:1; stop-color:#EEB63D"/>
   <stop offset="0.2" style="stop-opacity:1; stop-color:#FFE889"/>
   <stop offset="0.431373" style="stop-opacity:1; stop-color:#EFB741"/>
   <stop offset="0.690196" style="stop-opacity:1; stop-color:#FFE17E"/>
   <stop offset="1" style="stop-opacity:1; stop-color:#E6B240"/>
  </linearGradient>
 </defs>
 <g id="Слой_x0020_1">
  <metadata id="CorelCorpID_0Corel-Layer"/>
  <path class="fil0" d="M81.38 20.38l2.32 -9.88 -0.82 25.88 7.49 -25.64 -0.86 9.77 6.68 -17.05 -5.29 26.97 10.54 -26.97 -4.6 23.35 6.18 -10.29 -7.77 21.69 14.28 -20.96 -10.62 24.98 -4.31 2.36 -0.28 -3.82 -0.45 1.3 -4.19 2.61 -0.13 -0.98 0 0 -0.93 -3.54 -4.27 3.54 -1.55 -5.9 0.04 -0.2 -1.67 2.03 -1.58 2.48 -2.65 -4.15 -2.64 4.15 -1.59 -2.48 -1.71 -2.03 0.08 0.2 -1.54 5.9 -4.32 -3.54 -0.89 3.54 0 0 -0.16 0.98 -4.2 -2.61 -0.44 -1.3 -0.25 3.82 -4.35 -2.36 -10.62 -24.98 14.32 20.96 -7.77 -21.69 6.18 10.29 -4.59 -23.35 10.54 26.97 -5.29 -26.97 6.67 17.05 -0.86 -9.77 7.45 25.64 -0.77 -25.88 2.28 9.88 1.83 -20.38 2.64 29.78 2.65 -29.78 1.79 20.38 0 0zm1.5 16.65l-0.04 0.57 0.12 -0.33 -0.08 -0.24zm-11.88 0l0 0.57 -0.12 -0.33 0.12 -0.24zm-11.07 89.79l-5.41 19.49 10.91 -23.11 -0.74 15.22 6.07 -24.29 -1.47 24.49 3.05 -11.59 1.59 22.82 3.01 -28.92 2.97 28.92 1.63 -22.82 3.05 11.59 -1.46 -24.49 6.06 24.29 -0.73 -15.22 10.86 23.11 -5.37 -19.49 7.73 19.45 -5.17 -25.1 7.2 11.19 -8.09 -20.55 12.77 20.55 -9.48 -25.23 22.42 28.81 -17.37 -33 -5.74 -2.11 0.45 6.06 -4.07 -2.48 -0.41 3.82 -0.44 -1.1 -4.28 -2.48 -0.08 0.94 -0.12 -0.09 -0.85 3.46 -3.79 -3.29 -1.54 5.37 -0.21 0.45 -2.68 -3.02 -0.98 -1.46 -2.28 3.7 -2.28 -3.7 -0.97 1.46 -2.69 3.02 -0.2 -0.45 -1.59 -5.37 -3.78 3.29 -0.86 -3.46 -0.08 0.09 -0.12 -0.94 -4.27 2.48 -0.41 1.1 -0.45 -3.82 -4.07 2.48 0.45 -6.06 -5.69 2.11 -17.38 33 22.42 -28.81 -9.48 25.23 12.78 -20.55 -8.1 20.55 7.2 -11.19 -5.21 25.1 7.77 -19.45 0 0zm48.02 -27.38l32.51 19.98 -29.06 -25.51 -6.1 -0.29 2.32 5.58 -4.64 -1.06 0.98 4.84 20.75 17.46 -16.76 -21 0 0zm6.22 -10.09l36.25 10.38 -34.5 -16.69 -5.9 1.59 3.83 4.56 -4.85 0.41 2.44 4.31 25.11 10.21 -22.38 -14.77 0 0zm3.01 -11.47l36.66 0.12 -36.98 -6.67 -5.13 3.33 5.04 3.18 -4.47 1.87 3.66 3.33 27.02 2 -25.8 -7.16 0 0zm-0.85 -11.84l33.4 -16.6 -35.8 10.53 -3.87 4.72 5.9 1.51 -3.58 3.05 4.52 2.08 26.32 -6.35 -26.89 1.06 0 0zm-4.4 -10.99l27.79 -25.27 -31.98 20.23 -2.19 5.65 5.98 -0.36 -2.49 4.06 4.93 0.57 23.15 -14.07 -25.19 9.19 0 0zm-7.57 -9.11l19.98 -31.86 -25.43 28.15 -0.36 6.11 5.53 -2.16 -1.18 4.72 4.88 -0.94 17.7 -20.54 -21.11 16.52 -0.01 0zm-58.42 53.5l-32.51 19.98 29.01 -25.51 6.1 -0.29 -2.28 5.58 4.64 -1.06 -1.02 4.84 -20.75 17.46 16.81 -21zm-6.23 -10.09l-36.25 10.38 34.5 -16.69 5.86 1.59 -3.82 4.56 4.88 0.41 -2.44 4.31 -25.15 10.21 22.42 -14.77 0 0zm-3.05 -11.47l-36.66 0.12 37.03 -6.67 5.08 3.33 -5 3.18 4.47 1.87 -3.66 3.33 -27.06 2 25.8 -7.16 0 0zm0.85 -11.84l-33.4 -16.6 35.85 10.53 3.82 4.72 -5.9 1.51 3.58 3.05 -4.47 2.08 -26.37 -6.35 26.89 1.06 0 0zm4.44 -10.99l-27.83 -25.27 31.98 20.23 2.24 5.65 -6.02 -0.36 2.52 4.06 -4.92 0.57 -23.16 -14.07 25.19 9.19 0 0zm7.57 -9.11l-19.98 -31.86 25.43 28.15 0.37 6.11 -5.54 -2.16 1.14 4.72 -4.84 -0.94 -17.7 -20.54 21.12 16.52 0 0z"/>
 </g>
</svg>
